<mxfile host="app.diagrams.net" modified="2024-02-21T02:23:07.457Z" agent="Mozilla/5.0 (Windows NT 10.0; Win64; x64) AppleWebKit/537.36 (KHTML, like Gecko) Chrome/121.0.0.0 Safari/537.36" etag="I1Cbkx_afXadX1_zlV4G" version="23.1.5" type="github">
  <diagram id="R2lEEEUBdFMjLlhIrx00" name="Page-1">
    <mxGraphModel dx="2074" dy="1098" grid="1" gridSize="10" guides="1" tooltips="1" connect="1" arrows="1" fold="1" page="1" pageScale="1" pageWidth="850" pageHeight="1100" math="0" shadow="0" extFonts="Permanent Marker^https://fonts.googleapis.com/css?family=Permanent+Marker">
      <root>
        <mxCell id="0" />
        <mxCell id="1" parent="0" />
        <mxCell id="NLpxH-_fJc6K6f1orR_P-11" value="" style="edgeStyle=orthogonalEdgeStyle;rounded=0;orthogonalLoop=1;jettySize=auto;html=1;sketch=1;curveFitting=1;jiggle=2;" edge="1" parent="1" source="NLpxH-_fJc6K6f1orR_P-1" target="NLpxH-_fJc6K6f1orR_P-2">
          <mxGeometry relative="1" as="geometry" />
        </mxCell>
        <mxCell id="NLpxH-_fJc6K6f1orR_P-1" value="" style="rounded=0;whiteSpace=wrap;html=1;shadow=0;glass=0;fillColor=#ffe6cc;strokeColor=#d79b00;sketch=1;curveFitting=1;jiggle=2;" vertex="1" parent="1">
          <mxGeometry x="100" y="350" width="120" height="60" as="geometry" />
        </mxCell>
        <mxCell id="NLpxH-_fJc6K6f1orR_P-12" style="edgeStyle=orthogonalEdgeStyle;rounded=0;sketch=1;jiggle=2;curveFitting=1;orthogonalLoop=1;jettySize=auto;html=1;exitX=1;exitY=0.5;exitDx=0;exitDy=0;entryX=0;entryY=0.5;entryDx=0;entryDy=0;strokeColor=default;align=center;verticalAlign=middle;fontFamily=Helvetica;fontSize=11;fontColor=default;labelBackgroundColor=default;endArrow=classic;" edge="1" parent="1" source="NLpxH-_fJc6K6f1orR_P-2" target="NLpxH-_fJc6K6f1orR_P-3">
          <mxGeometry relative="1" as="geometry" />
        </mxCell>
        <mxCell id="NLpxH-_fJc6K6f1orR_P-2" value="" style="rounded=0;whiteSpace=wrap;html=1;shadow=0;glass=0;fillColor=#ffe6cc;strokeColor=#d79b00;sketch=1;curveFitting=1;jiggle=2;" vertex="1" parent="1">
          <mxGeometry x="290" y="350" width="120" height="60" as="geometry" />
        </mxCell>
        <mxCell id="NLpxH-_fJc6K6f1orR_P-13" style="edgeStyle=orthogonalEdgeStyle;rounded=0;sketch=1;jiggle=2;curveFitting=1;orthogonalLoop=1;jettySize=auto;html=1;exitX=1;exitY=0.5;exitDx=0;exitDy=0;entryX=0;entryY=0.5;entryDx=0;entryDy=0;strokeColor=default;align=center;verticalAlign=middle;fontFamily=Helvetica;fontSize=11;fontColor=default;labelBackgroundColor=default;endArrow=classic;" edge="1" parent="1" source="NLpxH-_fJc6K6f1orR_P-3" target="NLpxH-_fJc6K6f1orR_P-4">
          <mxGeometry relative="1" as="geometry" />
        </mxCell>
        <mxCell id="NLpxH-_fJc6K6f1orR_P-3" value="" style="rounded=0;whiteSpace=wrap;html=1;shadow=0;glass=0;fillColor=#ffe6cc;strokeColor=#d79b00;sketch=1;curveFitting=1;jiggle=2;" vertex="1" parent="1">
          <mxGeometry x="460" y="350" width="120" height="60" as="geometry" />
        </mxCell>
        <mxCell id="NLpxH-_fJc6K6f1orR_P-14" style="edgeStyle=orthogonalEdgeStyle;rounded=0;sketch=1;jiggle=2;curveFitting=1;orthogonalLoop=1;jettySize=auto;html=1;exitX=1;exitY=0.5;exitDx=0;exitDy=0;entryX=0;entryY=0.5;entryDx=0;entryDy=0;strokeColor=default;align=center;verticalAlign=middle;fontFamily=Helvetica;fontSize=11;fontColor=default;labelBackgroundColor=default;endArrow=classic;" edge="1" parent="1" source="NLpxH-_fJc6K6f1orR_P-4" target="NLpxH-_fJc6K6f1orR_P-5">
          <mxGeometry relative="1" as="geometry" />
        </mxCell>
        <mxCell id="NLpxH-_fJc6K6f1orR_P-4" value="" style="rounded=0;whiteSpace=wrap;html=1;shadow=0;glass=0;fillColor=#ffe6cc;strokeColor=#d79b00;sketch=1;curveFitting=1;jiggle=2;" vertex="1" parent="1">
          <mxGeometry x="640" y="350" width="120" height="60" as="geometry" />
        </mxCell>
        <mxCell id="NLpxH-_fJc6K6f1orR_P-5" value="" style="rounded=0;whiteSpace=wrap;html=1;shadow=0;glass=0;fillColor=#ffe6cc;strokeColor=#d79b00;sketch=1;curveFitting=1;jiggle=2;" vertex="1" parent="1">
          <mxGeometry x="820" y="350" width="120" height="60" as="geometry" />
        </mxCell>
        <mxCell id="NLpxH-_fJc6K6f1orR_P-17" style="edgeStyle=orthogonalEdgeStyle;rounded=0;sketch=1;jiggle=2;curveFitting=1;orthogonalLoop=1;jettySize=auto;html=1;entryX=0.5;entryY=0;entryDx=0;entryDy=0;strokeColor=default;align=center;verticalAlign=middle;fontFamily=Helvetica;fontSize=11;fontColor=default;labelBackgroundColor=default;endArrow=classic;" edge="1" parent="1" source="NLpxH-_fJc6K6f1orR_P-16" target="NLpxH-_fJc6K6f1orR_P-1">
          <mxGeometry relative="1" as="geometry" />
        </mxCell>
        <mxCell id="NLpxH-_fJc6K6f1orR_P-16" value="&lt;font style=&quot;font-size: 16px;&quot;&gt;head&lt;/font&gt;" style="text;strokeColor=none;fillColor=none;html=1;fontSize=11;fontStyle=1;verticalAlign=middle;align=center;fontFamily=Helvetica;fontColor=default;labelBackgroundColor=default;" vertex="1" parent="1">
          <mxGeometry x="110" y="260" width="100" height="40" as="geometry" />
        </mxCell>
        <mxCell id="NLpxH-_fJc6K6f1orR_P-19" style="edgeStyle=orthogonalEdgeStyle;rounded=0;sketch=1;jiggle=2;curveFitting=1;orthogonalLoop=1;jettySize=auto;html=1;exitX=0.5;exitY=1;exitDx=0;exitDy=0;strokeColor=default;align=center;verticalAlign=middle;fontFamily=Helvetica;fontSize=11;fontColor=default;labelBackgroundColor=default;endArrow=classic;" edge="1" parent="1" source="NLpxH-_fJc6K6f1orR_P-18" target="NLpxH-_fJc6K6f1orR_P-5">
          <mxGeometry relative="1" as="geometry" />
        </mxCell>
        <mxCell id="NLpxH-_fJc6K6f1orR_P-18" value="&lt;span style=&quot;font-size: 16px;&quot;&gt;tail&lt;/span&gt;" style="text;strokeColor=none;fillColor=none;html=1;fontSize=11;fontStyle=1;verticalAlign=middle;align=center;fontFamily=Helvetica;fontColor=default;labelBackgroundColor=default;" vertex="1" parent="1">
          <mxGeometry x="830" y="260" width="100" height="40" as="geometry" />
        </mxCell>
      </root>
    </mxGraphModel>
  </diagram>
</mxfile>
